<svg viewBox="0 0 488 432" fill="none" xmlns="http://www.w3.org/2000/svg">
<path d="M502 352.637H-14V352.895H502V352.637Z" fill="#EBEBEB"/>
<path d="M450.297 369.242H416.117V369.5H450.297V369.242Z" fill="#EBEBEB"/>
<path d="M327.819 372.049H318.851V372.307H327.819V372.049Z" fill="#EBEBEB"/>
<path d="M415.085 359.665H395.281V359.923H415.085V359.665Z" fill="#EBEBEB"/>
<path d="M84.7107 361.398H40.1387V361.657H84.7107V361.398Z" fill="#EBEBEB"/>
<path d="M100.439 361.398H93.906V361.657H100.439V361.398Z" fill="#EBEBEB"/>
<path d="M218.355 365.754H121.677V366.012H218.355V365.754Z" fill="#EBEBEB"/>
<path d="M230.584 306.61H31.315C29.754 306.607 28.2578 305.985 27.1549 304.88C26.052 303.775 25.4326 302.278 25.4326 300.717V20.6011C25.4462 19.049 26.0716 17.5649 27.173 16.4713C28.2744 15.3776 29.7629 14.7627 31.315 14.76H230.584C232.147 14.76 233.646 15.3808 234.751 16.4859C235.856 17.591 236.477 19.0899 236.477 20.6527V300.717C236.477 302.28 235.856 303.779 234.751 304.884C233.646 305.989 232.147 306.61 230.584 306.61V306.61ZM31.315 14.9664C29.8224 14.9691 28.3918 15.564 27.3373 16.6204C26.2829 17.6768 25.6906 19.1085 25.6906 20.6011V300.717C25.6906 302.209 26.2829 303.641 27.3373 304.698C28.3918 305.754 29.8224 306.349 31.315 306.352H230.584C232.078 306.349 233.509 305.754 234.565 304.698C235.621 303.642 236.216 302.21 236.219 300.717V20.6011C236.216 19.1075 235.621 17.6759 234.565 16.6198C233.509 15.5637 232.078 14.9691 230.584 14.9664H31.315Z" fill="#EBEBEB"/>
<path d="M453.816 306.61H254.537C252.975 306.607 251.478 305.985 250.373 304.881C249.268 303.776 248.647 302.279 248.644 300.717V20.6011C248.66 19.0481 249.288 17.564 250.391 16.4706C251.494 15.3772 252.984 14.7626 254.537 14.76H453.816C455.366 14.7654 456.852 15.3815 457.951 16.4749C459.05 17.5683 459.674 19.0508 459.688 20.6011V300.717C459.688 302.276 459.07 303.772 457.969 304.876C456.869 305.981 455.375 306.604 453.816 306.61V306.61ZM254.537 14.9664C253.043 14.9691 251.612 15.5637 250.555 16.6198C249.499 17.6759 248.905 19.1075 248.902 20.6011V300.717C248.905 302.21 249.499 303.642 250.555 304.698C251.612 305.754 253.043 306.349 254.537 306.352H453.816C455.31 306.349 456.741 305.754 457.797 304.698C458.853 303.642 459.448 302.21 459.451 300.717V20.6011C459.448 19.1075 458.853 17.6759 457.797 16.6198C456.741 15.5637 455.31 14.9691 453.816 14.9664H254.537Z" fill="#EBEBEB"/>
<path d="M440.297 352.637H337.912L328.83 127.95H431.215L440.297 352.637Z" fill="#E6E6E6"/>
<path d="M443.434 352.637H341.049L331.958 127.95H434.342L443.434 352.637Z" fill="#F0F0F0"/>
<path d="M347.179 346.249L338.614 134.338H428.212L436.778 346.249H347.179Z" fill="#FAFAFA"/>
<path d="M288.355 45.3898H53.823V210.51H288.355V45.3898Z" fill="#E6E6E6"/>
<path d="M293.526 45.3898H55.8767V210.51H293.526V45.3898Z" fill="#F5F5F5"/>
<path d="M297.344 210.51H53.823V216.072H297.344V210.51Z" fill="#E6E6E6"/>
<path d="M302.958 210.51H67.3423V216.072H302.958V210.51Z" fill="#F5F5F5"/>
<path d="M284.248 200.499V55.3898L65.1544 55.3898V200.499H284.248Z" fill="#E0E0E0"/>
<path d="M179.872 200.499V55.3898H169.531V200.499H179.872Z" fill="#F5F5F5"/>
<path d="M284.258 200.51V55.4001H280.347V200.51H284.258Z" fill="#EBEBEB"/>
<path d="M169.541 200.499V55.3898H165.63V200.499H169.541Z" fill="#EBEBEB"/>
<path d="M130.005 92.3045C129.972 96.4575 128.622 100.493 126.148 103.829C123.674 107.164 120.204 109.629 116.24 110.866C112.275 112.103 108.02 112.05 104.088 110.713C100.156 109.377 96.7495 106.826 94.3601 103.429C97.2488 105.031 100.5 105.866 103.803 105.855C107.367 105.843 110.86 104.861 113.908 103.013C116.955 101.165 119.441 98.5215 121.099 95.3666C122.757 92.2116 123.523 88.6644 123.316 85.1065C123.108 81.5486 121.935 78.1145 119.923 75.1733C122.983 76.8652 125.532 79.3473 127.306 82.3606C129.079 85.3739 130.012 88.808 130.005 92.3045V92.3045Z" fill="#EBEBEB"/>
<path d="M222.906 85.225C223.567 85.225 224.103 84.689 224.103 84.0279C224.103 83.3667 223.567 82.8307 222.906 82.8307C222.245 82.8307 221.709 83.3667 221.709 84.0279C221.709 84.689 222.245 85.225 222.906 85.225Z" fill="#EBEBEB"/>
<path d="M206.177 110.684C206.838 110.684 207.374 110.148 207.374 109.487C207.374 108.826 206.838 108.29 206.177 108.29C205.516 108.29 204.98 108.826 204.98 109.487C204.98 110.148 205.516 110.684 206.177 110.684Z" fill="#EBEBEB"/>
<path d="M87.6932 72.0154C88.3544 72.0154 88.8903 71.4794 88.8903 70.8182C88.8903 70.1571 88.3544 69.6211 87.6932 69.6211C87.0321 69.6211 86.4961 70.1571 86.4961 70.8182C86.4961 71.4794 87.0321 72.0154 87.6932 72.0154Z" fill="#EBEBEB"/>
<path d="M259.862 107.33C260.523 107.33 261.059 106.794 261.059 106.133C261.059 105.472 260.523 104.936 259.862 104.936C259.201 104.936 258.665 105.472 258.665 106.133C258.665 106.794 259.201 107.33 259.862 107.33Z" fill="#EBEBEB"/>
<path d="M200.625 72.0154C201.286 72.0154 201.822 71.4794 201.822 70.8182C201.822 70.1571 201.286 69.6211 200.625 69.6211C199.964 69.6211 199.428 70.1571 199.428 70.8182C199.428 71.4794 199.964 72.0154 200.625 72.0154Z" fill="#EBEBEB"/>
<path d="M221.709 138.198C222.37 138.198 222.906 137.662 222.906 137C222.906 136.339 222.37 135.803 221.709 135.803C221.048 135.803 220.512 136.339 220.512 137C220.512 137.662 221.048 138.198 221.709 138.198Z" fill="#EBEBEB"/>
<path d="M258.665 77.5675C259.326 77.5675 259.862 77.0315 259.862 76.3704C259.862 75.7092 259.326 75.1733 258.665 75.1733C258.004 75.1733 257.468 75.7092 257.468 76.3704C257.468 77.0315 258.004 77.5675 258.665 77.5675Z" fill="#EBEBEB"/>
<path d="M83.3383 182.914C83.3383 183.151 83.2681 183.382 83.1366 183.579C83.005 183.776 82.8181 183.929 82.5993 184.02C82.3806 184.111 82.1399 184.134 81.9077 184.088C81.6754 184.042 81.4621 183.928 81.2947 183.761C81.1273 183.593 81.0133 183.38 80.9671 183.148C80.9209 182.915 80.9446 182.675 81.0352 182.456C81.1258 182.237 81.2793 182.05 81.4761 181.919C81.673 181.787 81.9045 181.717 82.1412 181.717C82.4587 181.717 82.7632 181.843 82.9877 182.068C83.2122 182.292 83.3383 182.597 83.3383 182.914V182.914Z" fill="#EBEBEB"/>
<path d="M201.244 159.013C201.244 159.25 201.174 159.481 201.043 159.678C200.911 159.875 200.724 160.028 200.505 160.119C200.287 160.21 200.046 160.233 199.814 160.187C199.581 160.141 199.368 160.027 199.201 159.859C199.033 159.692 198.919 159.479 198.873 159.246C198.827 159.014 198.851 158.774 198.941 158.555C199.032 158.336 199.185 158.149 199.382 158.018C199.579 157.886 199.81 157.816 200.047 157.816C200.365 157.816 200.669 157.942 200.894 158.166C201.118 158.391 201.244 158.695 201.244 159.013Z" fill="#EBEBEB"/>
<path d="M253.732 156.856C254.393 156.856 254.929 156.32 254.929 155.659C254.929 154.998 254.393 154.462 253.732 154.462C253.071 154.462 252.535 154.998 252.535 155.659C252.535 156.32 253.071 156.856 253.732 156.856Z" fill="#EBEBEB"/>
<path d="M143.101 149.797C143.763 149.797 144.299 149.261 144.299 148.6C144.299 147.939 143.763 147.403 143.101 147.403C142.44 147.403 141.904 147.939 141.904 148.6C141.904 149.261 142.44 149.797 143.101 149.797Z" fill="#EBEBEB"/>
<path d="M216.776 186.526C216.776 186.763 216.706 186.994 216.574 187.191C216.443 187.388 216.256 187.542 216.037 187.632C215.818 187.723 215.577 187.746 215.345 187.7C215.113 187.654 214.9 187.54 214.732 187.373C214.565 187.205 214.451 186.992 214.405 186.76C214.358 186.527 214.382 186.287 214.473 186.068C214.563 185.849 214.717 185.662 214.914 185.531C215.11 185.399 215.342 185.329 215.579 185.329C215.896 185.329 216.201 185.455 216.425 185.68C216.65 185.904 216.776 186.209 216.776 186.526V186.526Z" fill="#EBEBEB"/>
<path d="M147.384 115.473C148.045 115.473 148.581 114.937 148.581 114.276C148.581 113.615 148.045 113.079 147.384 113.079C146.723 113.079 146.187 113.615 146.187 114.276C146.187 114.937 146.723 115.473 147.384 115.473Z" fill="#EBEBEB"/>
<path d="M94.9791 130.344C95.6402 130.344 96.1762 129.808 96.1762 129.147C96.1762 128.486 95.6402 127.95 94.9791 127.95C94.3179 127.95 93.782 128.486 93.782 129.147C93.782 129.808 94.3179 130.344 94.9791 130.344Z" fill="#EBEBEB"/>
<path d="M111.233 161.149C111.894 161.149 112.43 160.613 112.43 159.952C112.43 159.291 111.894 158.755 111.233 158.755C110.572 158.755 110.036 159.291 110.036 159.952C110.036 160.613 110.572 161.149 111.233 161.149Z" fill="#EBEBEB"/>
<path d="M300.451 259.458H281.761V352.637H300.451V259.458Z" fill="#E6E6E6"/>
<path d="M294.847 352.637H300.451V341.409H288.975L294.847 352.637Z" fill="#F0F0F0"/>
<path d="M86.1351 259.458H67.4456V352.637H86.1351V259.458Z" fill="#E6E6E6"/>
<path d="M300.461 259.458H81.2537V348.901H300.461V259.458Z" fill="#F0F0F0"/>
<path d="M86.8471 352.637H81.2537V341.409H92.7295L86.8471 352.637Z" fill="#F0F0F0"/>
<path d="M296.106 265.753H85.5984V301.543H296.106V265.753Z" fill="#E6E6E6"/>
<path d="M262.576 276.888H122.926C117.456 276.888 112.234 272.471 108.478 264.679H277.024C273.226 272.45 268.004 276.888 262.576 276.888Z" fill="#F0F0F0"/>
<path d="M296.106 307.322H85.5984V343.111H296.106V307.322Z" fill="#E6E6E6"/>
<path d="M262.576 318.447H122.926C117.456 318.447 112.234 314.03 108.478 306.238H277.024C273.226 314.04 268.004 318.447 262.576 318.447Z" fill="#F0F0F0"/>
<path d="M157.446 259.458H110.872C109.853 259.39 108.887 258.974 108.137 258.281C106.623 257.007 105.541 255.294 105.041 253.379L102.327 243.431H165.981L163.267 253.379C162.77 255.296 161.688 257.009 160.171 258.281C159.424 258.974 158.462 259.39 157.446 259.458V259.458Z" fill="#E6E6E6"/>
<path d="M165.331 247.734H103.029C101.532 247.734 100.284 247.28 100.108 246.702L98.8389 242.151C98.6428 241.459 100.005 240.84 101.749 240.84H166.6C168.354 240.84 169.696 241.459 169.521 242.151L168.241 246.702C168.076 247.28 166.827 247.734 165.331 247.734Z" fill="#FAFAFA"/>
<path d="M244 399.242C354.509 399.242 444.095 394.012 444.095 387.56C444.095 381.108 354.509 375.877 244 375.877C133.491 375.877 43.9055 381.108 43.9055 387.56C43.9055 394.012 133.491 399.242 244 399.242Z" fill="#F5F5F5"/>
<path d="M190.336 265.154H81.4704C74.6309 265.154 69.0864 270.699 69.0864 277.538V329.149C69.0864 335.988 74.6309 341.533 81.4704 341.533H190.336C197.176 341.533 202.72 335.988 202.72 329.149V277.538C202.72 270.699 197.176 265.154 190.336 265.154Z" fill="#75604C"/>
<path opacity="0.7" d="M190.336 265.154H81.4704C74.6309 265.154 69.0864 270.699 69.0864 277.538V329.149C69.0864 335.988 74.6309 341.533 81.4704 341.533H190.336C197.176 341.533 202.72 335.988 202.72 329.149V277.538C202.72 270.699 197.176 265.154 190.336 265.154Z" fill="white"/>
<path opacity="0.2" d="M69.0864 277.528V329.128C69.0864 332.412 70.3912 335.562 72.7136 337.885C75.0361 340.207 78.186 341.512 81.4704 341.512V274.514C81.4697 273.222 81.0385 271.966 80.245 270.945C79.4515 269.924 78.3407 269.197 77.0879 268.878C75.8351 268.558 74.5117 268.665 73.3263 269.181C72.141 269.697 71.1612 270.593 70.5415 271.728C69.5857 273.512 69.0858 275.504 69.0864 277.528V277.528Z" fill="#75604C"/>
<path d="M406.519 320.82H81.4704C74.6309 320.82 69.0864 326.365 69.0864 333.204V343.772C69.0864 350.611 74.6309 356.156 81.4704 356.156H406.519C413.359 356.156 418.903 350.611 418.903 343.772V333.204C418.903 326.365 413.359 320.82 406.519 320.82Z" fill="#75604C"/>
<path opacity="0.7" d="M406.519 320.82H81.4704C74.6309 320.82 69.0864 326.365 69.0864 333.204V343.772C69.0864 350.611 74.6309 356.156 81.4704 356.156H406.519C413.359 356.156 418.903 350.611 418.903 343.772V333.204C418.903 326.365 413.359 320.82 406.519 320.82Z" fill="white"/>
<path opacity="0.2" d="M283.299 320.82H81.4704C74.6309 320.82 69.0864 326.365 69.0864 333.204V343.772C69.0864 350.611 74.6309 356.156 81.4704 356.156H283.299C290.138 356.156 295.683 350.611 295.683 343.772V333.204C295.683 326.365 290.138 320.82 283.299 320.82Z" fill="#75604C"/>
<path d="M267.819 387.56H271.513L278.83 356.156H267.819V387.56Z" fill="#75604C"/>
<path opacity="0.7" d="M267.819 387.56H271.513L278.83 356.156H267.819V387.56Z" fill="white"/>
<path d="M264.815 387.56H268.51L275.817 356.156H264.815V387.56Z" fill="#75604C"/>
<path opacity="0.4" d="M264.815 387.56H268.51L275.817 356.156H264.815V387.56Z" fill="white"/>
<path d="M389.77 387.56H393.465L400.782 356.156H389.77V387.56Z" fill="#75604C"/>
<path opacity="0.7" d="M389.77 387.56H393.465L400.782 356.156H389.77V387.56Z" fill="white"/>
<path d="M386.767 387.56H390.462L397.768 356.156H386.767V387.56Z" fill="#75604C"/>
<path opacity="0.4" d="M386.767 387.56H390.462L397.768 356.156H386.767V387.56Z" fill="white"/>
<path d="M87.7244 387.56H91.4189L98.7358 356.156H87.7244V387.56Z" fill="#75604C"/>
<path opacity="0.7" d="M87.7244 387.56H91.4189L98.7358 356.156H87.7244V387.56Z" fill="white"/>
<path d="M84.7109 387.56H88.4055L95.7224 356.156H84.7109V387.56Z" fill="#75604C"/>
<path opacity="0.4" d="M84.7109 387.56H88.4055L95.7224 356.156H84.7109V387.56Z" fill="white"/>
<path d="M209.676 387.56H213.37L220.687 356.156H209.676V387.56Z" fill="#75604C"/>
<path opacity="0.7" d="M209.676 387.56H213.37L220.687 356.156H209.676V387.56Z" fill="white"/>
<path d="M206.662 387.56H210.357L217.674 356.156H206.662V387.56Z" fill="#75604C"/>
<path opacity="0.4" d="M206.662 387.56H210.357L217.674 356.156H206.662V387.56Z" fill="white"/>
<path d="M119.985 320.82C97.7452 320.82 92.7296 281.976 92.0279 264.566C91.3261 247.156 148.654 265.691 158.747 264.566C168.84 263.441 196.673 251.924 205.455 266.527C214.237 281.13 210.347 290.707 218.871 299.406C227.395 308.106 234.929 313.854 227.818 320.82H119.985Z" fill="#75604C"/>
<path opacity="0.4" d="M119.985 320.82C97.7452 320.82 92.7296 281.976 92.0279 264.566C91.3261 247.156 148.654 265.691 158.747 264.566C168.84 263.441 196.673 251.924 205.455 266.527C214.237 281.13 210.347 290.707 218.871 299.406C227.395 308.106 234.929 313.854 227.818 320.82H119.985Z" fill="white"/>
<path opacity="0.4" d="M119.985 320.82C97.7449 320.82 92.7294 281.976 92.0276 264.566C91.7593 258.033 99.6541 256.558 110.17 257.208C122.554 260.159 105.175 280.748 116.548 293.183C126.765 304.35 128.746 319.984 119.985 320.82Z" fill="#75604C"/>
<path d="M298.097 320.82C298.097 320.82 284.991 316.579 275.177 315.609C274.113 315.471 273.04 315.409 271.967 315.423H271.606H271.111C267.019 315.606 262.966 316.3 259.047 317.487C253.298 319.252 245.713 317.012 239.325 316.29C232.937 315.567 212.906 318.302 208.365 316.919C203.824 315.536 181.389 317.6 177.591 318.426C173.793 319.252 162.431 319.221 157.353 317.631C152.276 316.042 129.541 316.599 129.675 321.605C130.016 333.834 124.164 364.639 133.504 374.732C135.423 376.796 153.411 374.422 165.382 373.359C177.353 372.296 199.954 374.773 209.965 373.597C219.975 372.42 235.083 373.246 242.194 373.246C249.304 373.246 276.9 378.777 277.282 373.834C277.602 369.634 281.864 333.225 280.378 320.81L298.097 320.82Z" fill="#75604C"/>
<path opacity="0.2" d="M298.097 320.82C298.097 320.82 284.991 316.579 275.177 315.609C274.113 315.471 273.04 315.409 271.967 315.423H271.606H271.111C267.019 315.606 262.966 316.3 259.047 317.487C253.298 319.252 245.713 317.012 239.325 316.29C232.937 315.567 212.906 318.302 208.365 316.919C203.824 315.536 181.389 317.6 177.591 318.426C173.793 319.252 162.431 319.221 157.353 317.631C152.276 316.042 129.541 316.599 129.675 321.605C130.016 333.834 124.164 364.639 133.504 374.732C135.423 376.796 153.411 374.422 165.382 373.359C177.353 372.296 199.954 374.773 209.965 373.597C219.975 372.42 235.083 373.246 242.194 373.246C249.304 373.246 276.9 378.777 277.282 373.834C277.602 369.634 281.864 333.225 280.378 320.81L298.097 320.82Z" fill="white"/>
<path opacity="0.5" d="M163.05 370.542C163.256 364.35 163.783 347.033 163.803 330.098C163.803 327.539 166.156 327.167 166.486 329.685C168.551 346.042 170.357 363.669 170.965 369.851C171.089 371.089 170.501 372.214 169.706 372.296L164.474 372.781C163.679 372.864 163.009 371.832 163.05 370.542Z" fill="#75604C"/>
<path opacity="0.5" d="M231.234 370.49C231.657 364.742 233.04 345.423 233.856 327.146C233.938 325.279 235.682 325.237 235.796 327.146C236.828 344.959 237.55 364.918 237.736 370.625C237.736 371.502 237.323 372.224 236.766 372.224H232.204C231.616 372.204 231.172 371.409 231.234 370.49Z" fill="#75604C"/>
</svg>
